<svg height="512pt" viewBox="0 -50 512 511" width="512pt" fill="#fff" xmlns="http://www.w3.org/2000/svg"><path d="m492 159.550781c11.046875 0 20-8.953125 20-20v-59.050781c0-44.113281-35.886719-80-80-80h-272c-44.113281 0-80 35.886719-80 80v.050781h-10.171875c-38.503906 0-69.828125 31.210938-69.828125 69.574219v190.851562c0 38.363282 31.324219 69.574219 69.828125 69.574219h292.34375c38.503906 0 69.828125-31.210937 69.828125-69.574219v-21.425781c44.113281 0 80-35.886719 80-80 0-11.046875-8.953125-20-20-20s-20 8.953125-20 20c0 22.054688-17.945312 40-40 40v-129.425781c0-38.363281-31.324219-69.574219-69.828125-69.574219h-242.171875v-.050781c0-22.054688 17.945312-40 40-40h272c22.054688 0 40 17.945312 40 40v59.050781c0 11.046875 8.953125 20 20 20zm-129.828125 211h-292.34375c-16.445313 0-29.828125-13.265625-29.828125-29.574219v-171.195312l139.164062 86.089844c11.359376 7.027344 24.097657 10.539062 36.835938 10.539062s25.476562-3.511718 36.835938-10.539062l139.164062-86.089844v171.199219c0 16.304687-13.382812 29.570312-29.828125 29.570312zm20.398437-241.972656-150.777343 93.273437c-9.59375 5.933594-21.992188 5.933594-31.585938 0l-150.777343-93.273437c5.339843-4.972656 12.515624-8.027344 20.398437-8.027344h292.34375c7.882813 0 15.058594 3.054688 20.398437 8.027344zm0 0"/></svg>